<svg width="512" height="512" viewBox="0 0 512 512" fill="none" xmlns="http://www.w3.org/2000/svg">
<path d="M207.037 282.45C205.43 282.45 171.704 282.46 156.15 282.445C148.142 282.44 145.285 279.562 145.285 271.503C145.272 250.803 145.272 230.103 145.285 209.403C145.29 201.446 148.311 198.41 156.216 198.405C171.771 198.395 205.312 198.4 207.037 198.4V153.334C207.048 132.987 210.678 113.51 221.015 95.6775C231.598 77.4247 246.999 64.9216 266.737 57.6922C279.378 53.0586 292.5 51.2103 305.915 51.2C322.698 51.1898 339.482 51.2051 356.27 51.2359C363.484 51.2461 366.684 54.4359 366.7 61.7011C366.73 81.1725 366.73 100.644 366.7 120.11C366.689 127.452 363.622 130.401 356.245 130.483C342.487 130.632 328.719 130.54 314.977 131.092C301.097 131.092 293.796 137.871 293.796 152.238C293.463 167.434 293.658 182.646 293.658 198.395C294.958 198.395 334.459 198.39 352.922 198.395C361.308 198.395 364.175 201.277 364.175 209.71C364.175 230.298 364.17 250.89 364.155 271.478C364.15 279.788 361.457 282.44 353.019 282.445C334.556 282.455 295.209 282.45 293.489 282.45V449.08C293.489 457.964 290.693 460.795 281.928 460.795H217.81C210.063 460.795 207.043 457.784 207.043 450.038L207.037 282.45Z" fill="#3D6AD6"/>
</svg>
