<svg width="512" height="512" viewBox="0 0 512 512" fill="none" xmlns="http://www.w3.org/2000/svg">
<path d="M332 241V256C332 271.598 329.898 286.598 325.7 301C306.2 370.3 241.602 421 166 421C74.8 421 0 347.2 0 256C0 164.8 74.8 91 166 91C218.2 91 268.102 117.398 293.598 150.398L251 193.301C233 168.699 200.8 151 166 151C108.102 151 60 198.102 60 256C60 313.898 108.102 361 166 361C207.7 361 245 336.398 261.5 301H181V241H332ZM512 226V286H467V331H407V286H362V226H407V181H467V226H512Z" fill="#C80534"/>
<path d="M166 151V91C218.2 91 268.102 117.398 293.598 150.398L251 193.301C233 168.699 200.8 151 166 151ZM332 241V256C332 271.598 329.898 286.598 325.7 301C306.2 370.3 241.602 421 166 421V361C207.7 361 245 336.398 261.5 301H181V241H332ZM512 226V286H467V331H437V181H467V226H512Z" fill="#C90232"/>
</svg>
